<svg xmlns="http://www.w3.org/2000/svg" viewBox="0 0 600 600"><path id="js-box" d="M6.418 6.14h589v569h-589z"/><path id="js-letter" d="M402.1 451.3c11.9 18.6 27.4 32.4 54.7 32.4 22.9 0 37.5-11 37.5-26.5 0-18.2-14.9-24.8-40.3-35.5l-13.9-5.6c-39.8-16.5-66.3-37.1-66.3-80.7 0-40.2 31.5-70.8 81-70.8 35.1 0 60.6 11.9 78.7 42.9l-43 26.9c-9.7-16.6-19.8-23.1-35.7-23.1-16.2 0-26.4 10-26.4 23.1 0 15.8 10.2 22.5 33.9 32.4l13.9 5.8c47 19.4 73.7 39.3 73.7 84 0 48.2-39.4 74.7-91.9 74.7-51.3 0-84.5-23.7-100.8-54.8zm-195.4 4.5c8.6 14.9 16.5 27.6 35.6 27.6 18.1 0 29.5-6.8 29.5-33.6V267.7h55.5v182.8c0 55.4-33.7 80.7-82.6 80.7-44.5 0-70.2-22.3-83.1-49z"/></svg>