<svg
   xmlns:svg="http://www.w3.org/2000/svg"
   xmlns="http://www.w3.org/2000/svg"
   viewBox="0 0 600 600"> 
  <rect
     id="js-box"
     width="589"
     height="569"
     x="6.418"
     y="6.141"
     />
  <path
     id="js-letter"
     d="m 402.1,451.3 c 11.9,18.6 27.4,32.4 54.7,32.4 22.9,0 37.5,-11 37.5,-26.5 0,-18.2 -14.9,-24.8 -40.3,-35.5 l -13.9,-5.6 c -39.8,-16.5 -66.3,-37.1 -66.3,-80.7 0,-40.2 31.5,-70.8 81,-70.8 35.1,0 60.6,11.9 78.7,42.9 l -43,26.9 c -9.7,-16.6 -19.8,-23.1 -35.7,-23.1 -16.2,0 -26.4,10 -26.4,23.1 0,15.8 10.2,22.5 33.9,32.4 l 13.9,5.8 c 47,19.4 73.7,39.3 73.7,84 0,48.2 -39.4,74.7 -91.9,74.7 -51.3,0 -84.5,-23.7 -100.8,-54.8 z m -195.4,4.5 c 8.6,14.9 16.5,27.6 35.6,27.6 18.1,0 29.5,-6.8 29.5,-33.6 V 267.7 h 55.5 v 182.8 c 0,55.4 -33.7,80.7 -82.6,80.7 -44.5,0 -70.2,-22.3 -83.1,-49 z"
     />
</svg>
