<svg xmlns="http://www.w3.org/2000/svg" viewBox="0 0 750 660" width="750" height="660"><path id="logo_tri1" class="triangle" d="M340.5 16.51l-51.3 99.69 124-7.6z" fill="#99c3df"/><path id="path3094" class="triangle" d="M289.2 116.2l-45.4 88.3 72.7 26.5z" fill="#a0c7e4"/><path id="logo_tri2" class="triangle" d="M289.2 116.2L316.5 231l97.8-121-2-2.5z" fill="#91c0df"/><path id="logo_tri3" class="triangle" d="M414.3 110l-97.8 121 122.4 11.1-13.1-117.5z" fill="#81b7dc"/><path id="logo_tri4" class="triangle" d="M425.8 124.6l13.1 117.5 61.8-21.6-53.1-83.7z" fill="#74b1d9"/><path id="logo_tri5" class="triangle" d="M425.8 124.6l75 96.1 3.3-52.5z" fill="#77b2d7"/><path id="logo_tri6" class="triangle" d="M504.1 168.2l-3.3 52.5 20.9-16.9z" fill="#76a9d2"/><path id="logo_tri7" class="triangle" d="M521.7 203.8l-21 16.8 27.6-3.6z" fill="#71a0cf"/><path id="logo_tri8" class="triangle" d="M243.8 204.4l-50.5 98L316.5 231z" fill="#96c3e5"/><path id="logo_tri9" class="triangle" d="M316.5 231l-123.2 71.3-3.3 6.4 153.4 17.7z" fill="#7db7e0"/><path id="logo_tri10" class="triangle" d="M316.5 231l26.9 95.4 70.8-23.8z" fill="#6dafdb"/><path id="logo_tri11" class="triangle" d="M316.5 231l97.7 71.6 24.7-60.5z" fill="#6eafda"/><path id="logo_tri12" class="triangle" d="M438.9 242.1l-24.7 60.5 126.1-12.7z" fill="#57a4d5"/><path id="logo_tri13" class="triangle" d="M438.9 242.1l101.4 47.8-39.6-69.4z" fill="#5ca4d4"/><path id="logo_tri14" class="triangle" d="M500.7 220.5l33.8 74.1 23-18.6-29.2-59z" fill="#619dd0"/><path id="logo_tri15" class="triangle" d="M557.5 276L540 289.9l24.7.4z" fill="#5993cb"/><path id="logo_tri16" class="triangle" d="M146.5 393.3L133.7 418l48.6 10.6z" fill="#76b0de"/><path id="logo_tri17" class="triangle" d="M146.5 393.3l35.8 35.3.6-106z" fill="#82b9e3"/><path id="logo_tri18" class="triangle" d="M189.2 310.2l-6.3 12.4-.6 106L300.2 439z" fill="#68aadb"/><path id="logo_tri19" class="triangle" d="M189.2 310.3l111 128.7 43.2-112.6L190 308.6z" fill="#68acdc"/><path id="logo_tri20" class="triangle" d="M343.4 326.4L300.2 439l114-25.4z" fill="#4b9cd3"/><path id="logo_tri21" class="triangle" d="M343.4 326.4l70.8 87.2v-111z" fill="#53a1d6"/><path id="path3116" class="triangle" d="M414.2 302.6v111l126.1-123.7z" fill="#499dd4"/><path id="logo_tri22" class="triangle" d="M540.5 289.7L414.2 413.6l165.5 34.3z" fill="#338ccb"/><path id="logo_tri23" class="triangle" d="M540.3 289.9l39.4 158.2 37.2-52.5-52.2-105.3z" fill="#418bca"/><path id="logo_tri24" class="triangle" d="M616.8 395.6l-37.1 52.3 74 22z" fill="#2c79c0"/><path id="logo_tri25" class="triangle" d="M109.9 464.2l-42.5 82.6 136 14.5z" fill="#4b94cf"/><path id="logo_tri26" class="triangle" d="M133.7 418l-23.8 46.2 94.9 98.6-22.5-134.2z" fill="#539bd3"/><path id="logo_tri27" class="triangle" d="M182.3 428.6l20.9 132.6 97-122.2z" fill="#4997d0"/><path id="logo_tri28" class="triangle" d="M300.2 439l-97.3 122.3 138.2-42.5z" fill="#348ac9"/><path id="logo_tri29" class="triangle" d="M300.2 439l40.9 79.8 73.1-105.2z" fill="#358dcb"/><path id="logo_tri30" class="triangle" d="M414.2 413.6l-73.1 105.2 128.4-12.7z" fill="#2181c5"/><path id="logo_tri31" class="triangle" d="M414.2 413.6l55.3 92.6 110.2-58.3z" fill="#1a7ec3"/><path id="logo_tri32" class="triangle" d="M579.8 447.8L469 506.1l117.5.7z" fill="#0f71bc"/><path id="logo_tri33" class="triangle" d="M579.7 447.8l6.8 59 67.2-36.9z" fill="#146cba"/><path id="logo_tri34" class="triangle" d="M657 476.5l-3.3-6.7-67.2 37 28.3 69.4z" fill="#0562b3"/><path id="logo_tri35" class="triangle" d="M657 476.5l-42.2 99.7 80.6-22.2z" fill="#0159af"/><path id="logo_tri36" class="triangle" d="M41.68 596.7l-9.85 19.2 31.97-.2z" fill="#5889c9"/><path id="logo_tri37" class="triangle" d="M41.66 596.8l22.25 19.1 3.5-69.1z" fill="#528ccb"/><path id="logo_tri38" class="triangle" d="M67.41 546.8l-3.61 68.9 139.5-54.5z" fill="#4988c8"/><path id="logo_tri39" class="triangle" d="M203.2 561.2L63.71 615.7 107.4 644H181z" fill="#447cc2"/><path id="logo_tri40" class="triangle" d="M203.2 561.1L181 644h86.3z" fill="#3870bc"/><path id="logo_tri41" class="triangle" d="M203.1 561.2l64.2 82.8h46.2l27.6-125.2z" fill="#2b77bf"/><path id="logo_tri42" class="triangle" d="M341.1 518.8L312.8 644h45.9l46.6-37.3z" fill="#1d6cb9"/><path id="logo_tri43" class="triangle" d="M341.1 518.8l64.3 88.1L469.5 506z" fill="#1073bd"/><path id="logo_tri44" class="triangle" d="M469.3 506l-64 100.7L584.7 644z" fill="#0061b3"/><path id="logo_tri45" class="triangle" d="M469.3 506l115.4 138 30.1-67.8z" fill="#005bb0"/><path id="logo_tri46" class="triangle" d="M469.2 506l145.6 70.2-28.3-69.4z" fill="#0165b6"/><path id="logo_tri47" class="triangle" d="M614.8 576.2L584.7 644h86.6z" fill="#0049a6"/><path id="logo_tri48" class="triangle" d="M614.8 576.2l52 67.8 43.1-60.8-14.5-29.2z" fill="#004aa7"/><path id="logo_tri49" class="triangle" d="M709.9 583.1L666.8 644H740z" fill="#003a9e"/><path id="logo_tri50" class="triangle" d="M31.85 615.9L17.35 644l46.25-28.3z" fill="#5a7dc2"/><path id="logo_tri51" class="triangle" d="M63.65 615.6L17.35 644h47.44z" fill="#5371bc"/><path id="logo_tri52" class="triangle" d="M63.58 615.6l1.18 28.4h42.74z" fill="#4a71bc"/><path id="logo_tri53" class="triangle" d="M358.7 644h58.8l-12.1-37.5z" fill="#1354ac"/><path id="logo_tri54" class="triangle" d="M405.2 606.6l12.3 37.4h167.2z" fill="#004da8"/><path id="logo_snow" d="M343.7 63.85l63.4 80.65 69.8 38.1L551.2 332l-41.7-32.6-29.9 27.2-35.3-35.3-28.1 35.3-37.1-27.2-30 27.2-35.2-19-30.9 19-33.5-27.2-45.3 33.5z" fill="#fff"/><path id="logo_outline" d="M14.37 640.1L337.5 12.54l85.3 108.06 78.3 43.6 236 475.9z" fill="none" stroke="#fff" stroke-width="11.896"/></svg>